<svg version="1.1" id="Layer_1" xmlns="http://www.w3.org/2000/svg" xmlns:xlink="http://www.w3.org/1999/xlink" x="0px" y="0px"
	 width="100%" viewBox="0 0 1000 466" enable-background="new 0 0 1000 466" xml:space="preserve">
<path fill="#000000" opacity="1.000000" stroke="none" 
	d="
M654.000000,467.000000 
	C437.500000,467.000000 221.500000,466.988678 5.500045,467.093536 
	C1.750780,467.095337 0.903317,466.249359 0.906025,462.499939 
	C1.016047,310.166656 1.016047,157.833313 0.906025,5.500068 
	C0.903317,1.750626 1.750898,0.905753 5.500028,0.906894 
	C335.833344,1.007430 666.166687,1.007430 996.500000,0.906894 
	C1000.249084,0.905753 1001.096680,1.750626 1001.093994,5.500068 
	C1000.983948,157.833313 1000.983948,310.166656 1001.093994,462.499939 
	C1001.096680,466.249359 1000.249573,467.098328 996.499878,467.094513 
	C882.500000,466.978607 768.500000,467.000000 654.000000,467.000000 
z"/>
<path fill="#1FDDE9" opacity="1.000000" stroke="none" 
	d="
M724.666809,9.761311 
	C726.781738,10.996557 725.956848,12.664793 725.958496,14.010228 
	C726.000122,47.366554 725.976807,80.722961 725.893799,114.543655 
	C725.118225,118.719749 725.619934,122.463142 725.674805,126.564804 
	C725.863037,127.120102 725.905762,127.301605 725.889160,127.756447 
	C725.028809,133.095612 725.751953,138.200836 725.238647,143.684311 
	C713.293335,155.973801 701.525024,167.838409 689.823975,179.768951 
	C688.446045,181.173935 686.893677,180.997711 685.273499,180.997467 
	C678.810791,180.996506 672.348083,180.986847 665.418579,180.908615 
	C654.646912,180.005890 644.321228,180.767853 633.587769,180.226013 
	C634.375000,177.383514 636.772156,175.789062 638.720703,173.829697 
	C653.640320,158.827209 668.543030,143.805908 683.654907,128.998474 
	C686.758240,125.957649 687.940613,122.498230 687.956055,118.550415 
	C688.044556,95.892822 687.951660,73.234489 688.051941,50.577000 
	C688.064209,47.794987 687.330872,46.923477 684.465881,46.937679 
	C661.808472,47.050022 639.149658,47.076141 616.493103,46.897305 
	C613.845459,46.876408 611.873596,48.032063 610.348694,49.384506 
	C603.837769,55.159092 597.639282,61.286068 590.573242,68.000587 
	C598.251221,68.000587 604.990845,68.000656 611.730408,68.000572 
	C628.390686,68.000351 645.052185,68.109009 661.710144,67.911934 
	C665.227905,67.870308 666.150146,68.788040 666.088135,72.297531 
	C665.863892,85.000862 665.933716,97.711182 666.060608,110.417198 
	C666.082642,112.626144 664.827026,113.733719 663.539673,114.963470 
	C656.954224,121.254532 650.356934,127.533691 643.713013,133.762939 
	C641.958740,135.407806 640.872803,137.032440 640.903503,139.704559 
	C640.968201,145.345764 636.435059,149.429260 631.177307,148.996475 
	C624.927673,148.482040 622.169006,144.448639 623.000488,137.041183 
	C623.467163,132.883820 628.373474,130.054138 633.661987,130.919006 
	C635.414001,131.205536 636.799988,130.833954 638.106506,129.461151 
	C642.437500,124.910507 646.769226,120.324425 651.896179,116.647308 
	C657.736755,112.458374 659.038086,106.480949 659.008240,99.853386 
	C658.973328,92.094337 659.000061,84.335007 659.000061,77.493912 
	C651.203796,84.969795 643.063293,92.633621 635.118652,100.495384 
	C633.168762,102.424889 631.219727,103.059395 628.570068,103.049271 
	C605.912415,102.962738 583.254089,103.047607 560.596680,102.938339 
	C557.732178,102.924522 555.581970,103.518456 553.650574,105.752151 
	C552.072632,107.576981 550.150574,109.118790 548.156738,110.609962 
	C545.570801,112.543892 542.735840,114.397705 543.719788,119.231148 
	C544.740967,124.247391 538.582214,129.130447 533.083862,128.999298 
	C527.757263,128.872238 522.945740,123.802849 523.002136,118.377289 
	C523.052185,113.564346 528.228088,108.168968 533.282532,109.193581 
	C541.477661,110.854851 544.178772,103.747810 548.792603,100.235588 
	C552.471436,97.435097 555.595886,95.876511 560.181274,95.915939 
	C582.004578,96.103615 603.830566,95.958839 625.655090,96.053963 
	C628.330017,96.065620 630.297058,95.415077 632.169312,93.423645 
	C636.502808,88.814178 641.075378,84.429245 645.557739,79.960052 
	C646.933716,78.588142 648.478027,77.320267 648.321838,74.917343 
	C623.657593,74.917343 599.024109,74.917343 574.061829,74.917343 
	C574.705139,71.456352 577.494019,69.933464 579.566833,68.106323 
	C587.110657,61.456562 594.774048,54.934830 601.754761,47.688717 
	C606.853760,42.395882 612.276611,39.557678 620.237061,39.771042 
	C644.044067,40.409157 667.879822,40.077007 691.702820,39.914581 
	C695.138428,39.891155 696.367737,40.607334 696.049255,44.209354 
	C693.760803,70.093040 695.607361,96.041466 694.950012,121.952682 
	C694.854126,125.732033 693.696594,129.023804 690.719910,131.929443 
	C677.131165,145.193863 663.785461,158.707336 649.446777,173.036438 
	C660.191345,172.458359 669.855225,174.800385 679.669495,173.876923 
	C681.249634,173.728241 682.944397,172.421951 684.166321,171.222931 
	C692.753540,162.797012 701.041687,154.056686 709.828308,145.848022 
	C713.803711,142.134048 715.946350,138.319580 715.046753,132.880997 
	C714.778870,131.261398 715.018860,129.557785 715.098145,127.431496 
	C715.916626,123.231209 715.285095,119.444115 715.760620,115.299362 
	C715.972107,84.579872 715.924866,54.249401 716.084106,23.920012 
	C716.102173,20.472626 714.966431,19.730848 711.848938,19.927164 
	C707.865417,20.178017 703.854187,19.988607 699.386475,19.916012 
	C694.866516,19.023302 690.763611,19.745110 686.302429,19.239658 
	C656.913574,19.028654 627.917114,19.056749 598.921326,18.928984 
	C596.319214,18.917519 594.627747,19.794905 592.899658,21.538544 
	C579.527710,35.030373 566.516846,48.920486 552.559998,61.782085 
	C534.695312,78.244911 518.192078,96.052727 500.169373,113.126587 
	C496.784607,109.590843 493.420380,105.945534 489.917694,102.438438 
	C462.832855,75.319138 435.700592,48.247063 408.657715,21.085997 
	C406.535583,18.954554 404.505371,17.906807 401.361511,17.917704 
	C364.199707,18.046522 327.037170,18.053423 289.875427,17.919367 
	C286.131104,17.905861 284.875641,18.630844 284.895203,22.713509 
	C285.074097,60.041519 285.026123,97.370796 284.945282,134.699493 
	C284.939453,137.389420 285.675537,139.297485 287.611389,141.197815 
	C297.480072,150.885330 307.238434,160.686234 316.951141,170.530609 
	C318.696594,172.299713 320.434814,173.117386 323.007263,173.069626 
	C332.458923,172.894058 341.915741,172.999969 351.370636,172.999969 
	C351.752197,172.542252 352.133789,172.084534 352.515350,171.626816 
	C351.184845,170.756561 349.658386,170.083527 348.553680,168.985992 
	C335.313690,155.831879 322.179718,142.570755 308.896484,129.460754 
	C306.859161,127.450005 305.913116,125.520866 305.926636,122.589661 
	C306.048126,96.260033 306.074432,69.929176 305.913086,43.599995 
	C305.890808,39.964043 306.641388,38.865257 310.489838,38.898594 
	C333.985260,39.102116 357.493042,39.381176 380.974854,38.780098 
	C388.519836,38.586964 393.721375,41.315872 398.678345,46.147114 
	C406.985474,54.243515 415.383301,62.247158 423.783264,70.247559 
	C424.941071,71.350304 426.329193,72.211250 428.526917,73.879707 
	C402.475616,73.879707 377.380951,73.879707 352.286285,73.879707 
	C352.068329,74.290588 351.850372,74.701462 351.632416,75.112343 
	C355.893280,79.379883 360.562775,83.320061 364.310699,87.998512 
	C368.909393,93.739014 374.322052,95.369156 381.535065,95.166779 
	C399.518738,94.662216 417.555695,95.608742 435.511017,94.734924 
	C444.049927,94.319374 449.930115,97.409096 455.416595,102.924080 
	C456.121704,103.632866 456.867798,104.304436 457.533386,105.048294 
	C460.065857,107.878441 462.416046,109.846565 467.033386,109.225479 
	C473.825439,108.311852 478.268951,113.039162 477.982544,119.281281 
	C477.751862,124.309135 472.435852,128.989380 466.945404,128.998322 
	C461.687714,129.006912 456.434662,123.451363 457.177307,117.782684 
	C457.495087,115.357040 456.567108,114.350975 455.385834,112.821693 
	C448.834045,104.339455 440.673737,101.181015 429.659149,101.733482 
	C410.542877,102.692322 391.343658,101.966621 372.179535,102.033844 
	C369.116974,102.044586 367.091522,101.560417 364.824036,98.707909 
	C360.187958,92.875694 354.548340,87.810913 349.089996,82.676704 
	C346.711121,80.439133 345.563446,77.151649 342.005890,75.023720 
	C342.005890,86.041588 342.029999,96.591812 341.976257,107.141632 
	C341.969299,108.508339 342.722504,109.256653 343.559662,110.053268 
	C350.149384,116.323906 356.780273,122.552094 363.309204,128.885361 
	C365.197632,130.717194 367.379150,129.879623 369.433563,129.962952 
	C374.892120,130.184357 377.775787,132.776535 377.999603,137.927399 
	C378.264771,144.029907 375.642944,147.573929 370.549500,147.998062 
	C364.940155,148.465149 359.953918,145.461151 360.237183,140.450928 
	C360.578278,134.417953 356.658264,131.597412 353.089844,128.839951 
	C347.266907,124.340302 342.742065,118.601921 337.264740,113.820435 
	C336.151459,112.848564 335.969910,111.660339 335.979797,110.266365 
	C336.072693,97.164398 334.460480,84.113350 334.892517,70.986198 
	C335.002441,67.646202 335.934906,66.912979 339.102234,66.931633 
	C361.265472,67.062195 383.429871,67.000534 405.593872,67.000389 
	C406.865784,67.000381 408.137695,67.000389 410.352448,67.000389 
	C402.454376,59.780869 395.232513,53.195179 388.035248,46.582775 
	C387.015411,45.645828 385.830627,46.022678 384.723907,46.021301 
	C362.059998,45.993092 339.395538,46.070953 316.732635,45.919228 
	C313.532684,45.897808 312.918823,46.881271 312.933868,49.855339 
	C313.052734,73.351929 313.059143,96.849731 312.919189,120.346092 
	C312.903168,123.036606 314.056488,124.585678 315.746643,126.269386 
	C332.038147,142.499054 348.296722,158.761887 364.522217,175.057495 
	C365.759888,176.300491 367.460449,177.237305 367.921814,179.134811 
	C367.136475,180.586090 365.820312,179.963425 364.789276,179.966293 
	C348.458008,180.011642 332.126343,179.952393 315.795532,180.050797 
	C313.452118,180.064926 311.793335,179.413788 310.143921,177.744629 
	C299.252625,166.722870 288.293732,155.767166 277.273560,144.874252 
	C275.610352,143.230240 274.950043,141.576065 274.953796,139.228500 
	C275.021545,96.733742 275.038635,54.238754 274.923401,11.744200 
	C274.914978,8.633458 275.704620,7.916538 278.768951,7.924382 
	C321.263580,8.033159 363.758759,8.041175 406.253204,7.904803 
	C409.196747,7.895357 410.774384,9.259870 412.550171,11.039037 
	C441.744324,40.289307 470.961884,69.516182 501.074188,99.648903 
	C502.169281,98.129364 503.028381,96.527710 504.256805,95.293739 
	C525.183411,74.272232 545.943481,53.077347 567.232910,32.428627 
	C574.715393,25.171328 582.385315,18.080011 589.738098,10.679665 
	C591.416504,8.990460 593.145752,8.993237 595.124329,8.994201 
	C629.789856,9.011098 664.455322,9.018701 699.588135,9.099951 
	C708.106812,9.993799 716.184021,9.232759 724.666809,9.761311 
z"/>
<path fill="#1EDDE9" opacity="1.000000" stroke="none" 
	d="
M580.266724,372.242920 
	C570.432007,373.985779 565.177795,367.353302 559.462463,361.869598 
	C557.279541,359.775146 555.530945,358.342224 552.005310,358.828552 
	C546.483276,359.590302 541.402832,354.702087 541.058350,349.343994 
	C540.735901,344.328766 545.922119,339.128845 551.374756,339.000275 
	C557.395874,338.858368 562.790649,342.998688 561.730530,348.536865 
	C560.504578,354.940857 564.925842,357.113770 568.029663,360.486145 
	C572.594421,365.445831 578.338379,366.351807 584.924988,366.136841 
	C598.740479,365.685852 612.581665,366.076416 626.410461,365.937469 
	C629.279968,365.908661 631.238525,366.767090 633.360046,368.740906 
	C641.453369,376.270905 649.813721,383.513855 656.992310,389.901215 
	C656.992310,381.605988 656.988220,370.708740 657.000122,359.811523 
	C657.001099,358.934418 656.829163,358.174347 656.081421,357.637604 
	C648.893127,352.477417 643.371643,345.562012 637.083618,339.458374 
	C635.171326,337.602142 633.157715,338.062988 631.093201,338.021454 
	C625.353516,337.905884 620.864868,333.838501 621.073792,328.828796 
	C621.267334,324.188995 625.282532,320.183594 629.923523,320.000641 
	C635.520020,319.780060 639.930908,323.555389 639.909912,329.042389 
	C639.900024,331.631104 640.692688,333.413269 642.522827,335.072266 
	C649.018005,340.960144 654.425049,347.998260 661.618835,353.151947 
	C663.532043,354.522614 664.080505,356.333008 664.057495,358.712372 
	C663.935059,371.374969 663.863831,384.041809 664.088074,396.701630 
	C664.150269,400.213043 663.221985,401.111298 659.708008,401.085663 
	C636.715393,400.917908 613.720947,400.999329 590.167053,400.999329 
	C592.818726,405.006927 596.331543,407.696594 599.362427,410.790405 
	C601.220154,412.686768 603.865906,413.935150 605.358887,416.040985 
	C609.475769,421.847961 615.101379,422.202637 621.512268,422.108185 
	C641.503357,421.813629 661.502808,421.884521 681.495911,422.100250 
	C685.317444,422.141479 686.116943,421.078979 686.089294,417.414948 
	C685.913025,394.088226 685.944519,370.759247 686.069824,347.431885 
	C686.085510,344.507690 685.157959,342.572601 683.118164,340.553589 
	C667.131714,324.729675 651.264404,308.785309 635.369324,292.869080 
	C634.133118,291.631226 632.965515,290.324951 631.512085,288.780701 
	C636.039917,286.748352 639.767578,289.113403 643.589722,289.066650 
	C657.417847,288.897400 671.249329,289.014984 685.079407,288.983765 
	C687.102905,288.979187 688.781982,289.142059 690.396179,290.832947 
	C701.046997,301.989838 711.813904,313.036652 722.627502,324.036255 
	C723.993225,325.425446 724.007446,326.894135 724.007080,328.553345 
	C723.998169,371.043671 723.936523,413.534271 724.104004,456.023956 
	C724.119873,460.056366 722.375488,460.052338 719.386108,460.046326 
	C681.228516,459.969727 643.070679,459.987457 604.447388,459.914246 
	C599.927002,459.067963 595.837219,459.642487 591.387817,459.689636 
	C588.853882,460.460785 588.103821,458.551788 587.018311,457.471405 
	C567.528442,438.073792 548.027588,418.686584 528.652161,399.174896 
	C520.066956,390.529266 511.618866,381.736938 503.393219,372.750641 
	C500.599762,369.698914 499.119446,370.261322 496.505005,372.891968 
	C468.898499,400.669586 441.147736,428.303772 413.511169,456.051575 
	C411.510712,458.060089 409.610901,459.078339 406.660492,459.071106 
	C364.329926,458.967072 321.998840,458.957886 279.668335,459.077148 
	C276.144775,459.087067 274.881195,458.524872 274.897064,454.567963 
	C275.065918,412.404510 275.027985,370.240051 274.945557,328.076111 
	C274.940582,325.534729 275.649994,323.745911 277.431488,321.985352 
	C288.097778,311.444153 298.676117,300.813904 309.271149,290.200745 
	C310.572449,288.897247 311.788635,287.921478 313.925659,287.935394 
	C331.728027,288.051178 349.531464,288.001099 367.568146,288.001099 
	C367.236359,289.832581 365.872406,290.582642 364.907867,291.550201 
	C348.671722,307.838104 332.436829,324.127594 316.106201,340.320435 
	C313.977783,342.430908 312.890625,344.450256 312.912842,347.609192 
	C313.074615,370.606720 313.069427,393.606323 312.923279,416.604065 
	C312.902008,419.953827 313.534088,421.121796 317.193329,421.092133 
	C339.857178,420.908600 362.523224,421.009491 385.188538,420.977020 
	C386.609741,420.974976 388.084137,421.394409 389.396973,420.126709 
	C396.129364,413.625641 402.938751,407.204346 410.515381,400.000061 
	C407.752197,400.000061 405.996552,400.000061 404.240936,400.000061 
	C382.575531,400.000153 360.909393,399.909454 339.245514,400.090240 
	C335.660400,400.120178 335.003937,399.065826 334.890381,395.661316 
	C334.458069,382.699127 335.781006,369.807587 336.127319,356.881897 
	C336.285706,350.970917 342.073273,348.448639 345.879028,345.130554 
	C350.515320,341.088440 354.556427,336.495514 359.099152,332.401672 
	C360.477448,331.159576 359.906494,329.629028 359.983124,328.204559 
	C360.264984,322.964355 364.047272,319.017975 368.887451,319.000671 
	C373.339813,318.984772 377.801849,322.845642 377.999207,326.884796 
	C378.289703,332.831848 374.522644,338.867340 369.970703,337.619537 
	C363.457031,335.834076 361.547668,340.440857 358.209656,343.336853 
	C354.481049,346.571838 351.408142,350.477325 347.277283,353.352112 
	C343.506714,355.976196 341.493683,359.457794 341.838287,364.676086 
	C342.425171,373.562958 341.999908,382.516663 341.999908,388.909027 
	C349.008392,382.679779 357.234497,375.578918 365.179596,368.176483 
	C367.522064,365.994049 369.692352,364.885559 372.956787,364.924713 
	C387.453827,365.098633 401.979431,364.492554 416.442871,365.211060 
	C423.874359,365.580261 428.864716,362.654144 433.681183,357.893036 
	C436.340454,355.264374 438.420471,352.827911 438.121643,348.589478 
	C437.735138,343.107941 443.056824,337.683380 448.079712,338.034607 
	C453.828125,338.436554 458.935150,343.884766 458.006348,349.736572 
	C456.989716,356.141754 452.506256,359.959900 446.468201,358.735840 
	C443.474792,358.128967 442.374451,359.211792 440.731354,360.745636 
	C437.122955,364.114319 433.365204,367.327393 429.842682,370.781677 
	C428.267090,372.326782 426.512787,371.983612 424.749481,371.986084 
	C408.250488,372.009369 391.751007,372.060242 375.252838,371.940094 
	C372.542175,371.920380 370.601501,372.650726 368.778320,374.658508 
	C363.410980,380.569397 357.877075,386.329071 351.782684,392.813660 
	C377.180695,392.813660 401.943146,392.813660 426.566742,392.813660 
	C427.230591,395.166382 425.718719,395.780151 424.851654,396.586304 
	C414.438354,406.268219 403.670380,415.569092 393.722046,425.751068 
	C392.063629,427.448425 389.934723,428.049652 387.458496,428.042938 
	C361.626862,427.972717 335.794556,427.929810 309.963654,428.083435 
	C306.549927,428.103760 305.921295,426.996704 305.934540,423.873810 
	C306.047791,397.209198 306.044312,370.543701 305.922974,343.879150 
	C305.911072,341.263214 306.835968,339.594727 308.569916,337.873779 
	C322.643280,323.906006 336.652802,309.873901 351.543762,295.000427 
	C342.765472,295.000427 334.886353,295.365356 327.060699,294.875610 
	C321.597168,294.533691 317.831635,296.267212 314.113495,300.223877 
	C305.417023,309.478302 296.285004,318.327881 287.197906,327.206879 
	C285.470520,328.894714 284.955414,330.578247 284.958984,332.879669 
	C285.016937,370.210724 285.035309,407.541992 284.935791,444.872864 
	C284.927460,447.991577 285.545105,449.094757 288.961060,449.082916 
	C326.791718,448.951630 364.623138,448.960785 402.453857,449.082825 
	C405.180756,449.091614 406.675262,447.842499 408.340149,446.172913 
	C438.578735,415.849213 468.842163,385.550262 499.682465,354.662964 
	C501.419922,356.581879 502.961945,358.437988 504.660553,360.137604 
	C523.626343,379.114532 542.848022,397.842987 561.504517,417.118683 
	C571.224365,427.161102 580.854065,437.292236 590.677856,447.237732 
	C592.544922,449.127838 594.339111,450.074036 597.105713,450.066742 
	C634.603271,449.967560 672.101257,449.957031 709.598694,450.074982 
	C712.938538,450.085480 714.104126,449.477264 714.090027,445.813263 
	C713.944641,408.149353 713.982666,370.484650 714.054077,332.820312 
	C714.058533,330.483215 713.441528,328.815613 711.764038,327.163208 
	C702.030518,317.575531 692.399841,307.883270 682.748657,298.212189 
	C681.447693,296.908600 680.240417,295.897430 678.097778,295.932373 
	C668.625366,296.086884 659.149048,295.999237 649.560303,295.999237 
	C649.579285,297.935944 651.131287,298.567932 652.081909,299.524994 
	C664.765198,312.294647 677.460266,325.053284 690.258972,337.706848 
	C692.159119,339.585480 693.075317,341.394440 693.064331,344.145386 
	C692.957214,370.976715 692.936035,397.808990 693.079407,424.639984 
	C693.097595,428.045624 692.377258,429.113373 688.770508,429.089661 
	C663.106445,428.920959 637.440796,429.007538 611.775635,428.978851 
	C610.351379,428.977264 608.894775,429.355957 607.574646,428.104187 
	C595.840942,416.978577 584.048645,405.914642 571.516907,394.120331 
	C597.117737,394.120331 621.768738,394.120331 647.290283,394.120331 
	C640.819580,387.205658 635.473755,380.579468 629.283997,374.685577 
	C627.573730,373.057037 625.880920,372.991425 623.897827,372.992462 
	C612.897461,372.998291 601.897034,372.981934 590.430298,372.903625 
	C586.886780,372.046143 583.746155,372.736877 580.266724,372.242920 
z"/>
<path fill="#1EDDE9" opacity="1.000000" stroke="none" 
	d="
M770.750244,310.750183 
	C796.565369,284.935974 822.130615,259.371857 848.629211,232.874435 
	C847.151611,231.824158 845.539368,230.985352 844.312073,229.760712 
	C816.125000,201.634140 787.995789,173.449493 759.791260,145.340546 
	C757.918640,143.474319 756.924500,141.711319 756.931091,138.930176 
	C757.030273,96.943771 756.994324,54.957054 757.026550,12.970438 
	C757.027466,11.732728 756.532715,10.357594 757.914368,8.719868 
	C762.454346,12.497889 766.156616,17.138903 770.946655,20.526196 
	C772.956909,21.947718 774.498840,24.025446 776.279480,25.778675 
	C797.608948,46.780540 818.611938,68.129387 840.400024,88.644333 
	C853.601257,101.074165 865.820557,114.494209 879.287903,126.592842 
	C890.429260,136.601990 900.305420,147.875275 911.457153,157.806107 
	C924.749695,169.643219 936.448425,183.093689 949.653748,194.958145 
	C962.522766,206.520447 974.167480,219.279968 986.706177,231.145554 
	C988.693298,233.026001 989.557556,234.188400 987.032471,236.580994 
	C972.582825,250.272903 958.273438,264.114166 944.006165,277.996857 
	C932.649658,289.047211 921.574341,300.390045 910.096558,311.311218 
	C896.622925,324.131439 883.712891,337.547180 870.090637,350.175720 
	C858.021545,361.364349 846.971252,373.559875 834.793152,384.583649 
	C821.112488,396.967682 808.807190,410.755676 795.178833,423.134399 
	C783.606995,433.645172 772.988770,445.068848 761.688904,455.820465 
	C760.512939,456.939301 759.311096,458.030884 758.171570,459.088409 
	C756.287537,458.095306 757.038879,456.582092 757.037659,455.412079 
	C756.992981,412.925629 757.028259,370.439056 756.931091,327.952789 
	C756.925171,325.364685 757.722107,323.620117 759.512634,321.919067 
	C763.255127,318.363647 766.846741,314.649323 770.750244,310.750183 
z"/>
<path fill="#1EDDE9" opacity="1.000000" stroke="none" 
	d="
M243.224243,458.383240 
	C242.359238,458.400635 241.611343,458.060516 241.060013,457.519928 
	C222.070023,438.899658 203.333572,420.012878 184.045090,401.707703 
	C170.310013,388.672821 157.310455,374.878754 143.357681,362.112244 
	C131.338501,351.114838 120.528831,338.914032 108.421562,328.071014 
	C94.545288,315.643677 82.260117,301.604828 68.459587,289.159760 
	C55.490387,277.464294 43.906067,264.391937 31.003059,252.686707 
	C24.249403,246.559952 17.859615,240.104218 11.015504,233.562561 
	C14.717956,230.175568 18.431273,226.982712 21.916191,223.557495 
	C44.561340,201.300385 66.829750,178.646606 89.903412,156.844345 
	C101.855713,145.550629 113.174492,133.643402 125.127739,122.375488 
	C149.683105,99.227974 173.605881,75.432320 197.806152,51.922050 
	C211.176437,38.932987 224.394821,25.792313 237.705154,12.744205 
	C239.110641,11.366409 240.428284,9.912323 242.674530,9.180487 
	C243.709457,10.224880 243.476059,11.419044 243.475449,12.563540 
	C243.452576,55.767769 243.551956,98.972046 243.237610,142.632874 
	C237.109146,149.144638 231.226028,155.248978 225.235718,161.246262 
	C201.210403,185.299576 177.151855,209.319733 153.009323,233.448349 
	C182.995758,263.450745 212.898788,293.369720 242.921539,323.599701 
	C243.693527,324.981079 243.476761,326.171753 243.476135,327.318604 
	C243.451996,370.856476 243.552841,414.394409 243.224243,458.383240 
z"/>
<path fill="#FFFFFF" opacity="1.000000" stroke="none" 
	d="
M239.091858,263.000000 
	C235.081741,263.612244 233.838974,262.544281 233.887802,258.595398 
	C234.132950,238.771667 234.060410,218.942871 233.936371,199.116867 
	C233.917267,196.065704 234.413681,194.871689 237.893616,194.898819 
	C249.998444,194.993225 249.921707,194.833435 250.039505,206.897339 
	C250.084427,211.498947 248.038055,217.619919 250.915909,220.258286 
	C253.390915,222.527374 259.440002,221.070969 263.900757,220.954773 
	C268.837067,220.826218 275.411469,223.122070 278.225647,220.049622 
	C280.660156,217.391678 278.968475,210.895187 278.986511,206.095032 
	C279.028137,194.998337 279.009003,195.257416 289.905823,194.880997 
	C294.724365,194.714539 296.257141,195.695404 296.153229,200.921539 
	C295.769043,220.240845 295.935883,239.572815 296.066101,258.898865 
	C296.086884,261.978546 295.560028,263.474762 292.085358,263.051300 
	C287.847412,262.534821 282.159790,264.851318 279.697571,262.117981 
	C277.599426,259.788818 279.178131,254.218811 278.978363,250.089844 
	C278.739655,245.155319 281.125671,238.579086 278.044403,235.767990 
	C275.377563,233.334991 268.883179,234.943771 264.086395,235.043228 
	C259.484833,235.138641 253.362946,233.031830 250.730042,235.924545 
	C248.463776,238.414444 250.088287,244.450012 250.003403,248.918060 
	C249.981262,250.083923 249.999878,251.250565 249.999893,252.416840 
	C250.000031,263.000397 250.000031,263.000397 239.091858,263.000000 
z"/>
<path fill="#FFFFFF" opacity="1.000000" stroke="none" 
	d="
M430.969086,190.999664 
	C438.000397,191.001038 438.000183,191.001038 438.000061,197.453079 
	C437.999878,208.095169 438.000000,218.737244 438.000000,230.123932 
	C443.779083,224.832916 449.431274,220.185898 454.407135,214.901993 
	C457.332581,211.795410 460.291809,210.652985 464.363190,210.939392 
	C468.338257,211.219009 472.348358,211.000198 477.439789,211.000198 
	C475.510773,212.953903 474.114685,214.382233 472.703003,215.794998 
	C467.971069,220.530609 463.277985,225.306351 458.475494,229.969360 
	C456.675446,231.717117 456.732910,232.944366 458.337585,234.963837 
	C465.088379,243.459808 471.596680,252.148300 478.221832,260.744659 
	C478.638214,261.284973 479.118622,261.702026 478.564240,262.995514 
	C473.409698,262.995514 467.982300,263.282745 462.605286,262.886261 
	C459.450928,262.653595 457.916260,259.484924 456.075134,257.271881 
	C452.235413,252.656540 448.647308,247.831894 444.987488,243.133896 
	C439.007141,246.629349 436.948395,251.625061 437.988007,258.073853 
	C438.553131,261.579529 437.720184,263.250702 433.425995,263.126892 
	C422.006866,262.797638 421.999847,263.044098 421.999908,251.445496 
	C421.999969,233.301407 422.205078,215.153473 421.865906,197.015717 
	C421.772858,192.039444 422.951324,190.005920 427.988556,190.977966 
	C428.790985,191.132828 429.648987,190.999664 430.969086,190.999664 
z"/>
<path fill="#FFFFFF" opacity="1.000000" stroke="none" 
	d="
M624.000000,242.022888 
	C623.999939,239.031570 624.014465,236.535370 623.997070,234.039383 
	C623.951904,227.535858 621.596375,224.456177 616.585144,223.981888 
	C606.838623,223.059448 604.359741,227.337280 603.037781,233.020615 
	C600.991211,241.819168 602.260376,250.791306 602.065857,259.684113 
	C602.011719,262.162537 601.542480,263.026642 598.816895,263.082458 
	C586.997803,263.324646 587.000000,263.434448 587.000000,251.838318 
	C586.999939,233.034348 587.132629,214.228653 586.891235,195.427795 
	C586.841370,191.541962 587.985046,190.834808 591.574158,190.909103 
	C601.996704,191.124908 602.000122,190.959534 602.000000,201.551392 
	C602.000000,205.865128 602.000000,210.178848 602.000000,214.824005 
	C607.612122,212.301666 612.805847,209.716232 619.164429,209.850235 
	C631.987488,210.120468 640.120972,219.016159 640.016541,231.063278 
	C639.934326,240.547760 639.887939,250.035645 640.067932,259.517426 
	C640.122131,262.372864 639.260742,263.042969 636.479675,263.073792 
	C623.999146,263.212128 624.000122,263.307495 624.000000,251.005005 
	C623.999939,248.176041 624.000000,245.347061 624.000000,242.022888 
z"/>
<path fill="#FFFFFF" opacity="1.000000" stroke="none" 
	d="
M728.000244,241.068451 
	C728.000122,247.556213 727.837280,253.560349 728.069519,259.549133 
	C728.182983,262.473450 727.170105,263.041718 724.439270,263.069977 
	C711.998718,263.198700 711.999756,263.288361 711.999878,250.935440 
	C712.000000,238.939804 712.137085,226.941605 711.911926,214.950195 
	C711.848511,211.574326 712.894653,210.598709 716.065491,210.954346 
	C718.204468,211.194244 720.428711,211.252289 722.549988,210.944641 
	C726.313965,210.398743 727.811279,211.744766 726.849365,215.875565 
	C735.249207,209.608307 744.043152,207.871307 753.479431,211.943970 
	C760.873962,215.135437 764.140869,220.972672 765.167053,229.013519 
	C766.415161,238.792938 765.489502,248.533646 766.054199,258.266968 
	C766.274292,262.061157 764.851135,263.100708 761.181213,263.078979 
	C750.001648,263.012665 750.191040,263.146698 749.930725,252.178391 
	C749.767029,245.282623 751.185547,238.286453 749.086792,231.491333 
	C746.973511,224.649231 744.567261,223.223526 737.033752,224.001022 
	C732.686951,224.449631 728.414978,229.143951 728.029053,234.083130 
	C727.860779,236.235855 728.000366,238.412643 728.000244,241.068451 
z"/>
<path fill="#FFFFFF" opacity="1.000000" stroke="none" 
	d="
M513.871765,228.638672 
	C510.586609,222.950500 503.682098,221.140671 495.926697,223.559158 
	C495.474548,223.700150 495.015106,223.825668 494.577301,224.003296 
	C492.227875,224.956482 488.307343,227.249268 487.810333,226.657913 
	C485.606445,224.035904 484.521332,220.508163 482.745544,217.475525 
	C481.983582,216.174316 482.601257,215.723511 483.386993,215.244827 
	C493.934479,208.818542 512.936096,207.103760 523.428772,215.282990 
	C527.815186,218.702301 529.795288,224.236084 529.932068,229.873779 
	C530.174316,239.853043 529.890625,249.844376 530.070557,259.826263 
	C530.120544,262.596954 529.144836,263.231689 526.667114,263.038696 
	C524.351318,262.858368 521.978882,262.757843 519.687744,263.055542 
	C516.000488,263.534607 514.158997,262.388397 515.041016,258.195312 
	C506.286316,264.946045 497.275177,264.605896 488.115906,260.561371 
	C483.530151,258.536407 479.473724,251.103531 480.002655,246.625244 
	C480.826447,239.649948 485.384857,234.620346 491.839020,232.953918 
	C498.203064,231.310745 504.625824,232.191284 511.018341,232.074982 
	C513.398987,232.031662 514.452087,231.493317 513.871765,228.638672 
z"/>
<path fill="#FFFFFF" opacity="1.000000" stroke="none" 
	d="
M651.218872,250.601669 
	C645.423767,239.751053 645.974792,229.593079 653.028687,219.959549 
	C657.384521,214.010635 663.826050,211.055725 670.749878,210.167740 
	C679.083923,209.098877 687.103271,210.324127 694.422668,215.604828 
	C699.568237,219.317230 702.737854,224.264999 703.685425,229.779221 
	C706.835327,248.109573 697.012878,262.846283 677.377380,263.117340 
	C666.471191,263.267883 657.514282,260.451202 651.218872,250.601669 
z"/>
<path fill="#FFFFFF" opacity="1.000000" stroke="none" 
	d="
M309.228790,257.721252 
	C302.340271,250.701294 303.893188,239.759674 312.046112,234.960617 
	C316.604980,232.277115 321.478546,231.735382 326.617859,231.964279 
	C330.601807,232.141754 334.599976,231.999710 338.625671,231.999710 
	C337.312714,224.660599 333.696960,222.173904 326.349731,222.811340 
	C321.939484,223.193970 317.583130,223.318359 314.020447,226.437088 
	C313.687225,226.728821 312.933899,227.066406 312.742584,226.915985 
	C309.668549,224.498810 309.129059,220.540207 307.204834,217.401093 
	C306.379150,216.054092 308.400391,214.677872 309.643280,214.169113 
	C321.766052,209.206818 334.071503,207.419312 346.095642,214.109711 
	C351.404388,217.063553 353.794769,222.485397 353.933441,228.455597 
	C354.173248,238.780807 353.906586,249.117035 354.062286,259.445465 
	C354.103790,262.198517 353.454620,263.385681 350.538177,263.044159 
	C348.565704,262.813202 346.520599,262.804504 344.550049,263.043396 
	C341.050842,263.467560 339.013550,262.649231 340.306763,257.755615 
	C335.323151,261.762421 330.431580,263.391846 324.665558,263.121246 
	C318.985352,262.854706 313.511169,262.812195 309.228790,257.721252 
z"/>
<path fill="#FFFFFF" opacity="1.000000" stroke="none" 
	d="
M405.587463,259.785950 
	C393.022247,265.368774 381.091461,264.826752 370.481628,256.601868 
	C365.556671,252.783997 362.506714,247.121002 361.914215,240.321442 
	C360.830475,227.884979 365.131958,218.277130 376.530579,213.055313 
	C387.619629,207.975372 398.745605,208.222015 409.008606,215.955139 
	C411.187866,217.597229 412.110504,219.961517 413.525635,222.054794 
	C413.779449,222.430191 414.041809,223.271500 413.913544,223.364532 
	C410.655396,225.727463 407.124573,227.612228 403.424561,229.194595 
	C400.989899,230.235809 400.457306,227.814880 399.392792,226.797760 
	C392.951141,220.643051 383.325500,222.018280 379.026031,229.865372 
	C376.625702,234.246155 377.924957,243.573349 381.396088,246.880310 
	C385.313416,250.612366 394.373505,252.013855 397.935699,247.748688 
	C402.150391,242.702301 404.773956,244.328064 408.995911,246.884048 
	C414.518097,250.227219 414.965027,251.144699 410.501587,255.984406 
	C409.181915,257.415314 407.883270,258.940308 405.587463,259.785950 
z"/>
<path fill="#FFFFFF" opacity="1.000000" stroke="none" 
	d="
M566.994690,250.997696 
	C569.378662,251.139511 571.329712,247.944458 572.486450,249.458649 
	C574.560852,252.173996 575.648071,255.691254 576.875671,258.975098 
	C577.218323,259.891724 575.932739,260.486847 575.066406,261.020081 
	C568.279419,265.197296 555.189392,263.603485 549.485413,258.050415 
	C546.353271,255.001190 545.041870,251.353378 545.012085,247.140945 
	C544.966248,240.647659 544.894897,234.151245 545.052185,227.661423 
	C545.114929,225.073074 544.734863,223.403488 541.662537,224.005890 
	C537.577332,224.806839 536.427673,222.875458 536.973938,219.161697 
	C537.141724,218.020844 537.163757,216.806320 536.969055,215.674301 
	C536.411072,212.430161 537.904968,211.461685 540.827026,212.008942 
	C544.464172,212.690140 545.167664,211.058563 545.086914,207.672913 
	C544.880188,199.003723 545.053772,198.999588 553.818909,198.999832 
	C560.998352,199.000031 561.385559,199.027481 560.866699,206.347260 
	C560.508972,211.393921 562.228149,212.654770 566.866333,212.101517 
	C568.811340,211.869507 572.151184,210.860535 572.707275,212.922699 
	C573.583008,216.170258 573.198853,219.874939 572.743286,223.305756 
	C572.564026,224.655487 570.397766,223.945053 569.146790,223.971588 
	C561.000854,224.144440 561.000305,224.118011 561.000183,232.348190 
	C561.000122,235.844757 561.277222,239.369019 560.931396,242.831024 
	C560.479065,247.357910 562.115845,250.066757 566.994690,250.997696 
z"/>
<path fill="#FFFFFF" opacity="1.000000" stroke="none" 
	d="
M511.721802,315.221985 
	C514.280945,317.784882 515.898804,320.486115 516.991394,323.363190 
	C506.100159,327.350189 504.215393,317.833374 499.654572,312.065857 
	C497.083527,315.657013 494.773376,319.249146 492.087769,322.534332 
	C489.284210,325.963745 485.523010,323.129486 481.629883,324.112274 
	C484.768860,317.799744 489.021240,313.161316 492.603394,308.109558 
	C494.250488,305.786774 493.851349,304.777435 492.366058,302.685547 
	C489.238678,298.280914 485.426147,294.274658 483.408295,289.472229 
	C492.553680,286.222626 495.925140,292.677521 499.437500,298.918427 
	C502.895477,296.235077 503.560059,291.169342 507.179596,289.250885 
	C509.457123,288.043732 512.895020,289.025848 516.647644,289.025848 
	C513.064392,294.018768 510.308838,298.566925 506.819305,302.456573 
	C504.704376,304.814026 505.123474,306.408569 506.769318,308.199432 
	C508.658630,310.255157 510.151550,312.530762 511.721802,315.221985 
z"/>
<path fill="#FFFFFF" opacity="1.000000" stroke="none" 
	d="
M434.991821,179.489716 
	C430.894470,181.892563 428.760101,178.551758 426.491364,176.804428 
	C422.347717,173.613113 418.659424,169.830536 414.000183,165.582504 
	C414.000183,169.833115 413.891327,173.360001 414.039886,176.876007 
	C414.133148,179.083847 413.742737,180.194519 411.130676,180.083298 
	C408.949432,179.990387 407.833679,179.799271 407.932831,177.143051 
	C408.149872,171.327377 407.917938,165.496460 408.029327,159.674835 
	C408.102203,155.866119 410.156921,154.873932 413.436981,156.991669 
	C419.359894,160.815735 423.495483,166.753372 430.000549,170.650085 
	C430.000549,166.746063 430.142517,162.856049 429.948700,158.982849 
	C429.827484,156.559906 430.621582,155.916962 433.007996,155.910706 
	C435.420959,155.904388 436.228485,156.599808 436.030212,158.999237 
	C435.475525,165.710953 436.941803,172.504257 434.991821,179.489716 
z"/>
<path fill="#FFFFFF" opacity="1.000000" stroke="none" 
	d="
M528.000061,170.400879 
	C527.999939,172.837570 527.896484,174.838867 528.027649,176.824677 
	C528.168274,178.953857 527.866455,180.101028 525.191101,180.105942 
	C522.491272,180.110886 521.860352,179.228241 521.947449,176.707199 
	C522.125183,171.560928 522.138672,166.398788 521.937195,161.254257 
	C521.847961,158.976074 522.509460,157.224564 524.396423,156.294373 
	C526.487488,155.263565 528.140869,156.900558 529.536072,158.121536 
	C534.214050,162.215378 538.754211,166.466614 543.999817,171.253159 
	C543.999817,166.778046 544.129089,162.896057 543.951599,159.028137 
	C543.843994,156.684601 544.496338,155.886078 546.956299,155.909561 
	C549.296326,155.931900 550.143433,156.443222 550.059509,158.939590 
	C549.869812,164.584274 549.970642,170.239929 550.016418,175.890594 
	C550.031799,177.789108 549.970886,179.348190 547.695374,180.164490 
	C545.587769,180.920547 544.456848,179.857086 543.166382,178.677979 
	C539.529663,175.355301 535.819641,172.109924 532.264832,168.702301 
	C531.051086,167.538818 529.715698,166.911957 528.000000,166.137207 
	C528.000000,167.689529 528.000000,168.824097 528.000061,170.400879 
z"/>
<path fill="#FFFFFF" opacity="1.000000" stroke="none" 
	d="
M517.729370,175.231033 
	C519.405579,176.640427 520.286682,178.077988 520.624329,179.849045 
	C516.842712,180.277756 513.833740,180.225815 510.962158,176.882568 
	C508.849976,174.423462 504.653595,176.060928 501.421783,176.093262 
	C497.929596,176.128174 493.798401,174.430573 491.543610,179.512848 
	C491.082458,180.552216 486.949310,179.962448 483.680664,180.178345 
	C489.117798,172.502350 493.999847,165.338852 499.184204,158.401260 
	C501.919830,154.740509 503.699158,155.147842 506.542999,159.005066 
	C510.373657,164.200699 514.193787,169.393845 517.729370,175.231033 
z"/>
<path fill="#FFFFFF" opacity="1.000000" stroke="none" 
	d="
M446.515259,180.991409 
	C438.000458,177.765182 438.000458,177.765182 438.000336,169.030350 
	C438.000275,165.704056 438.130646,162.370865 437.955627,159.053802 
	C437.833740,156.743546 438.437683,155.869217 440.936249,155.910629 
	C443.245361,155.948898 444.196930,156.389725 444.057434,158.924652 
	C443.838440,162.904160 443.995331,166.904572 444.001831,170.896133 
	C444.004150,172.323135 443.707733,173.728165 445.712189,174.380478 
	C449.309143,175.551025 452.954315,175.196198 456.485474,174.660889 
	C458.112762,174.414200 459.156464,172.548386 459.051178,170.370651 
	C458.866669,166.554337 459.169708,162.712433 458.940552,158.900970 
	C458.785583,156.323425 459.818451,155.967499 462.085541,155.911514 
	C464.619110,155.848938 465.136810,156.798386 465.045105,159.074356 
	C464.884552,163.059448 465.020203,167.055786 464.995636,171.047195 
	C464.958710,177.045700 461.507843,180.680084 455.438354,180.976349 
	C452.617737,181.114029 449.784821,180.999344 446.515259,180.991409 
z"/>
<path fill="#FFFFFF" opacity="1.000000" stroke="none" 
	d="
M471.280304,155.999969 
	C477.385498,155.999908 483.025818,156.097046 488.660034,155.954117 
	C491.069305,155.893005 492.166992,156.320084 492.107758,159.129440 
	C492.053955,161.681290 491.113678,162.013229 488.904297,162.056503 
	C481.997498,162.191818 481.999359,162.289581 481.999420,169.036743 
	C481.999451,171.524033 481.945007,174.012894 482.016693,176.498123 
	C482.078033,178.625046 482.153534,180.164474 479.033203,180.134430 
	C476.056976,180.105759 475.900574,178.807999 475.971252,176.565918 
	C476.080902,173.087173 475.725098,169.574570 476.074615,166.127823 
	C476.446991,162.455841 474.974274,161.413879 471.660492,161.992386 
	C471.338684,162.048584 470.998383,162.006577 470.666931,161.998672 
	C468.572968,161.948746 466.110504,162.521774 466.000153,159.173660 
	C465.878418,155.481201 468.534790,156.034988 471.280304,155.999969 
z"/>
<path fill="#FFFFFF" opacity="1.000000" stroke="none" 
	d="
M578.651062,171.700943 
	C575.879761,173.605133 573.655945,175.229584 571.529907,176.973282 
	C567.242432,180.489670 566.378174,180.698517 559.704285,179.199692 
	C563.905396,175.578674 567.907410,172.129272 571.902832,168.685577 
	C568.494690,164.137711 563.720215,161.119812 559.305786,156.833038 
	C564.482666,154.961075 568.331848,156.146973 571.733459,159.252762 
	C573.694763,161.043472 575.496521,163.009018 577.685303,165.031219 
	C579.035889,165.931473 579.415710,167.129959 580.127808,168.476364 
	C580.322327,168.958374 580.390442,169.156281 580.434692,169.670013 
	C580.161987,170.592545 579.745605,171.067749 578.651062,171.700943 
z"/>
<path fill="#FFFFFF" opacity="1.000000" stroke="none" 
	d="
M555.943176,156.002319 
	C558.269775,155.911575 557.990295,157.268036 557.992615,158.381897 
	C558.005981,164.668457 557.856750,170.959824 558.065979,177.239441 
	C558.156982,179.971268 556.866577,180.026184 554.802307,180.060440 
	C552.727539,180.094894 551.895996,179.600739 551.950073,177.339844 
	C552.096191,171.222168 552.201050,165.089355 551.916077,158.981491 
	C551.771790,155.887543 553.311462,155.821869 555.943176,156.002319 
z"/>
<path fill="#00FFFF" opacity="1.000000" stroke="none" 
	d="
M243.428497,458.703583 
	C243.015121,414.175598 243.014786,369.516907 243.027847,324.384460 
	C244.314484,324.393707 243.986633,325.517029 243.985855,326.442413 
	C243.948395,370.485901 243.894012,414.529419 243.428497,458.703583 
z"/>
<path fill="#00FFFF" opacity="1.000000" stroke="none" 
	d="
M243.423126,142.870331 
	C243.030212,98.753258 243.018906,54.417015 243.014099,9.622823 
	C244.766037,9.641587 243.958710,11.081933 243.959625,12.043355 
	C244.000763,55.252838 243.989502,98.462379 243.976318,141.671906 
	C243.976212,141.998337 243.864410,142.324722 243.423126,142.870331 
z"/>
<path fill="#FFFFFF" opacity="1.000000" stroke="none" 
	d="
M580.383301,168.919159 
	C578.722412,168.391830 577.925476,167.375259 578.003906,165.505844 
	C579.520691,159.757584 586.481750,155.767548 594.478455,156.243210 
	C590.895508,161.916687 585.083740,164.500824 580.383301,168.919159 
z"/>
<path fill="#FFFFFF" opacity="1.000000" stroke="none" 
	d="
M579.961487,169.223450 
	C579.944458,169.160004 580.012451,169.099289 580.053650,169.079849 
	C586.537964,169.898788 589.184875,175.937317 594.406494,179.023727 
	C586.232544,182.805206 582.447876,176.931198 578.033508,172.296814 
	C578.059387,171.926727 577.990601,171.999390 577.954651,172.034119 
	C578.651672,171.510269 579.504211,171.064835 579.892944,169.752472 
	C579.991211,169.417679 579.978516,169.286911 579.961487,169.223450 
z"/>
<path fill="#00FFFF" opacity="1.000000" stroke="none" 
	d="
M633.297729,180.431519 
	C643.553833,180.112411 653.941895,180.205475 664.640869,180.567688 
	C654.444458,180.839127 643.937134,180.841415 633.297729,180.431519 
z"/>
<path fill="#00FFFF" opacity="1.000000" stroke="none" 
	d="
M724.870483,9.576129 
	C716.952698,9.873796 708.815308,9.790188 700.366577,9.439079 
	C708.253845,9.179338 716.452332,9.187095 724.870483,9.576129 
z"/>
<path fill="#00FFFF" opacity="1.000000" stroke="none" 
	d="
M725.422424,143.871307 
	C725.127319,138.946198 725.213196,133.802948 725.564453,128.344757 
	C725.821106,133.237579 725.812256,138.445389 725.422424,143.871307 
z"/>
<path fill="#00FFFF" opacity="1.000000" stroke="none" 
	d="
M686.125549,19.421215 
	C690.046204,19.127834 694.182495,19.213070 698.618530,19.570690 
	C694.725830,19.828661 690.533569,19.814245 686.125549,19.421215 
z"/>
<path fill="#2FD1E8" opacity="1.000000" stroke="none" 
	d="
M591.468811,459.915161 
	C595.063110,458.180389 599.225281,459.084808 603.670410,459.584412 
	C599.963623,459.892426 595.945374,459.937561 591.468811,459.915161 
z"/>
<path fill="#33CCCC" opacity="1.000000" stroke="none" 
	d="
M725.898071,126.489792 
	C724.265442,123.233307 725.064453,119.421707 725.566162,115.321533 
	C725.873596,118.685631 725.924683,122.363312 725.898071,126.489792 
z"/>
<path fill="#00FFFF" opacity="1.000000" stroke="none" 
	d="
M715.580322,115.124146 
	C715.871643,118.722481 715.785034,122.534935 715.434326,126.658852 
	C715.180908,123.092964 715.191650,119.215614 715.580322,115.124146 
z"/>
<path fill="#2AD6D6" opacity="1.000000" stroke="none" 
	d="
M580.115479,372.413177 
	C583.038757,372.140411 586.192322,372.229065 589.654907,372.575867 
	C586.757874,372.814240 583.551758,372.794403 580.115479,372.413177 
z"/>
<path fill="#000000" opacity="1.000000" stroke="none" 
	d="
M867.750305,337.749939 
	C849.233826,355.932404 831.284912,374.204742 812.580200,391.667511 
	C801.649353,401.872498 791.536987,412.891815 780.423279,422.857880 
	C776.132141,426.705933 772.051758,430.771729 767.741516,434.664398 
	C766.328125,433.620026 767.039978,432.179901 767.038269,430.999359 
	C766.990479,398.167572 767.037598,365.335571 766.934937,332.504059 
	C766.925903,329.605499 767.778992,327.643524 769.829651,325.602051 
	C799.592590,295.972137 829.220093,266.206085 859.030151,236.623840 
	C861.685913,233.988358 861.516724,232.862701 858.974487,230.338150 
	C829.292542,200.863022 799.777344,171.220093 770.117737,141.722336 
	C767.801697,139.418839 766.922302,137.152924 766.933228,133.929626 
	C767.043091,101.598114 767.000000,69.266090 767.000061,36.934204 
	C767.000061,35.489758 767.000061,34.045311 767.000061,32.600861 
	C767.419495,32.279846 767.838928,31.958832 768.258423,31.637815 
	C769.182068,32.933102 769.937744,34.399162 771.054688,35.497940 
	C786.583923,50.773697 801.820984,66.370293 817.839844,81.116730 
	C830.074341,92.379341 841.134766,104.820496 853.514465,115.860085 
	C864.690247,125.826103 874.727783,136.898102 885.635376,147.097351 
	C907.867859,167.885971 929.388550,189.407303 951.300598,210.522354 
	C959.173218,218.108643 966.887695,225.859222 975.311462,233.674683 
	C939.450195,268.371002 903.725342,302.935394 867.750305,337.749939 
z"/>
<path fill="#000000" opacity="1.000000" stroke="none" 
	d="
M191.754303,395.255188 
	C182.899551,386.409058 174.419220,377.686462 165.666794,369.246063 
	C143.699081,348.061523 121.544411,327.070709 99.593842,305.868530 
	C88.662148,295.309570 78.346619,284.094086 67.149635,273.833282 
	C54.407764,262.156769 42.845913,249.275574 29.954317,237.833481 
	C25.348282,233.745361 26.813719,232.478775 30.058113,229.336121 
	C47.958286,211.997101 65.388664,194.161545 83.597305,177.157089 
	C93.677643,167.743378 103.041130,157.620407 113.231796,148.359726 
	C125.306931,137.386581 136.295044,125.290787 148.365448,114.362900 
	C159.704590,104.097061 169.781799,92.567078 181.204041,82.461296 
	C193.414474,71.658188 204.134598,59.367332 216.207886,48.483841 
	C222.041595,43.225029 227.561417,37.625214 233.999924,31.643932 
	C233.999924,33.980072 233.999924,35.406029 233.999924,36.831982 
	C234.000015,69.317444 233.952194,101.803093 234.077393,134.288086 
	C234.089386,137.396957 233.124680,139.463135 230.970703,141.606033 
	C200.270248,172.148636 169.654709,202.776581 138.985413,233.417175 
	C169.617416,264.064484 200.091431,294.607117 230.669693,325.044983 
	C233.090881,327.455048 234.096695,329.805023 234.081894,333.251282 
	C233.943771,365.402954 234.000198,397.555481 234.000244,429.707764 
	C234.000259,431.345825 234.000244,432.983887 234.000244,436.070801 
	C219.112701,422.335205 206.446976,407.973785 191.754303,395.255188 
z"/>
<path fill="#000000" opacity="1.000000" stroke="none" 
	d="
M506.108459,252.000427 
	C499.533203,253.220963 495.593109,250.782181 495.980347,246.091461 
	C496.397247,241.041229 500.869446,242.241455 503.708191,241.106476 
	C505.140198,240.533920 507.016144,240.813065 508.640961,241.051132 
	C510.420593,241.311859 513.061890,239.769058 513.830811,242.127609 
	C514.703125,244.803375 513.932617,247.632004 511.719513,249.763062 
	C510.264984,251.163605 508.602142,252.081009 506.108459,252.000427 
z"/>
<path fill="#000000" opacity="1.000000" stroke="none" 
	d="
M664.009460,241.639832 
	C661.139343,230.047562 667.859070,222.917374 675.786011,222.975662 
	C683.520996,223.032532 689.915710,230.047882 688.741150,237.630234 
	C687.281982,247.049347 682.603027,250.809738 674.082520,250.065369 
	C668.751404,249.599640 666.173706,246.216721 664.009460,241.639832 
z"/>
<path fill="#000000" opacity="1.000000" stroke="none" 
	d="
M321.802094,243.685944 
	C326.819977,239.680008 332.389954,241.368027 337.648163,241.026031 
	C338.710327,240.956955 338.861633,241.652145 339.028931,242.569733 
	C339.642090,245.932999 336.021820,250.948532 331.965210,251.964249 
	C324.722473,253.777695 321.620300,251.073166 320.299316,247.803665 
	C319.577759,246.017822 320.357544,245.006454 321.802094,243.685944 
z"/>
<path fill="#000000" opacity="1.000000" stroke="none" 
	d="
M501.700439,165.765045 
	C504.453247,165.554840 504.654236,167.957809 505.907776,169.795334 
	C503.873749,169.885696 501.839691,169.976059 499.409912,170.084015 
	C499.654602,168.339172 500.293884,167.078033 501.700439,165.765045 
z"/>
<path fill="#000000" opacity="1.000000" stroke="none" 
	d="
M579.777527,169.687012 
	C581.479187,171.078751 580.031189,171.467270 578.398804,172.026398 
	C578.467041,171.364670 579.015442,170.660507 579.777527,169.687012 
z"/>
<path fill="#1EDDE9" opacity="1.000000" stroke="none" 
	d="
M786.530334,136.822845 
	C779.935608,130.388947 780.036804,125.303535 786.622375,119.874977 
	C788.179138,118.591698 788.002930,117.016014 788.002625,115.376633 
	C788.000488,104.725243 788.001526,94.073853 788.001526,83.513435 
	C789.948914,82.506081 790.542908,84.136185 791.391846,84.960625 
	C805.103943,98.277069 818.491821,111.945259 832.573242,124.857430 
	C842.245972,133.726974 850.994995,143.536240 860.851196,152.142441 
	C868.869202,159.143631 875.765503,167.259781 883.794678,174.165497 
	C894.391235,183.279404 903.417358,193.994034 913.879272,203.174118 
	C921.878784,210.193481 929.085693,217.958939 936.745483,225.287628 
	C939.479309,227.903229 942.719116,229.874512 945.340637,232.674240 
	C947.249817,234.713104 947.237244,236.157471 945.063599,237.335510 
	C941.752563,239.129944 939.554626,242.058762 936.962036,244.573914 
	C923.374390,257.755554 910.170288,271.354095 896.184082,284.095581 
	C887.218262,292.263519 879.236389,301.431580 870.062317,309.286530 
	C861.459961,316.651978 854.193359,325.337219 845.655457,332.681396 
	C836.704041,340.381378 829.179993,349.570953 820.196777,357.120483 
	C809.163208,366.393188 800.365540,377.981567 788.001892,386.816833 
	C788.001892,384.569397 788.001892,382.532990 788.001831,380.496582 
	C788.001587,366.665405 788.073730,352.833527 787.935730,339.003723 
	C787.910339,336.463745 788.577087,334.658508 790.414246,332.942749 
	C799.535461,324.424072 808.153442,315.390930 817.261719,306.840424 
	C823.048096,301.408325 828.312744,295.194611 834.053406,289.665497 
	C842.825989,281.216187 851.643494,272.809479 860.279114,264.215942 
	C867.799927,256.731842 875.263550,249.190247 882.805115,241.727295 
	C884.283020,240.264801 884.734680,239.109879 884.179810,236.771927 
	C882.811768,231.008469 886.967651,225.454620 892.294495,225.004044 
	C899.293640,224.412033 903.865295,228.087387 903.998779,234.413544 
	C904.142334,241.221069 900.180359,245.392944 893.466064,244.888596 
	C891.005676,244.703781 889.426147,244.956558 887.595947,246.798172 
	C857.769714,276.809967 827.864075,306.743073 797.899170,336.616455 
	C795.883362,338.626038 794.851868,340.526825 794.924011,343.468109 
	C795.135742,352.093689 794.999390,360.727844 794.999390,370.143616 
	C798.539490,367.103058 801.709412,364.638123 804.583984,361.866760 
	C817.013184,349.883728 829.187500,337.631561 841.773132,325.816589 
	C857.354126,311.189697 872.686707,296.309662 888.126953,281.539795 
	C904.418762,265.955292 920.984009,250.659149 937.144897,234.330048 
	C925.415283,225.146286 915.747498,213.949966 904.795044,204.064026 
	C891.864441,192.392365 880.021484,179.516190 867.099304,167.834442 
	C858.718079,160.257751 851.007324,152.051102 842.819885,144.310089 
	C827.061584,129.411148 811.321228,114.493248 795.015381,99.054810 
	C795.015381,105.434677 795.030762,111.466957 795.002075,117.499023 
	C794.996399,118.672363 795.715515,119.325890 796.532227,119.859581 
	C802.380859,123.681557 801.769104,129.454758 799.973328,132.972076 
	C797.482666,137.850143 792.758667,139.198334 786.530334,136.822845 
z"/>
<path fill="#1EDDE9" opacity="1.000000" stroke="none" 
	d="
M103.177887,279.674744 
	C99.944382,276.757080 96.855194,274.217651 93.989403,271.447144 
	C80.634140,258.535858 67.340607,245.560745 55.620880,234.160782 
	C70.781120,218.210770 85.317383,201.884308 100.980492,186.721909 
	C117.412903,170.814774 133.967041,155.023453 150.469894,139.182526 
	C168.286423,122.080635 186.416840,105.308495 203.776749,87.730644 
	C206.394928,85.079575 209.519241,82.928368 212.999039,80.059937 
	C212.999039,85.660835 212.999069,90.876343 212.999039,96.091858 
	C212.998962,106.256302 212.818832,116.425636 213.094162,126.582611 
	C213.193573,130.249771 211.991150,132.697006 209.457794,135.215500 
	C179.331863,165.164520 149.318512,195.226776 119.234604,225.218170 
	C117.441345,227.005890 116.639236,228.561157 116.823738,231.406799 
	C117.241142,237.844345 113.875122,241.891174 106.882767,242.905746 
	C102.457535,243.547836 97.052452,238.497894 96.153557,233.395966 
	C95.139832,227.642319 102.748810,220.465744 108.451027,222.324600 
	C110.934959,223.134338 111.997055,222.511047 113.481972,221.024460 
	C143.626251,190.846069 173.794785,160.691879 203.957214,130.531601 
	C204.993835,129.495071 206.059357,128.614212 206.042679,126.824928 
	C205.951797,117.068977 205.999451,107.311745 205.999451,97.167625 
	C195.724380,105.107742 187.522491,114.414642 178.520523,122.868164 
	C162.447083,137.962311 146.621780,153.313400 130.689072,168.549454 
	C122.665962,176.221741 115.019318,184.293594 106.774162,191.718445 
	C93.069489,204.059677 79.952019,217.006332 66.634659,229.749420 
	C64.272484,232.009750 64.426338,233.139099 66.689178,235.291428 
	C78.111412,246.155838 89.176102,257.401001 100.725502,268.125671 
	C116.387108,282.668884 131.618713,297.651733 147.072159,312.405457 
	C162.647354,327.275391 178.297043,342.064026 193.766434,357.046783 
	C197.487564,360.650848 201.416367,364.156830 205.999146,368.341583 
	C205.999146,361.791992 205.812393,356.052155 206.088120,350.334625 
	C206.203583,347.940643 204.299728,347.819641 203.252502,346.826904 
	C197.700653,341.563934 198.780701,333.513489 205.601379,330.137085 
	C209.625641,328.144989 215.672440,329.906769 217.957443,333.737091 
	C220.326630,337.708496 219.435623,344.380402 215.609192,346.570526 
	C213.199615,347.949646 212.968033,349.508179 212.977844,351.751312 
	C213.025208,362.581329 212.999191,373.411682 212.999191,384.298889 
	C211.226364,384.811157 210.796310,383.156952 209.949844,382.401550 
	C198.296722,372.002014 187.660217,360.536957 176.247711,349.902313 
	C159.500473,334.296448 143.203171,318.235809 126.659630,302.428528 
	C118.867622,294.983307 111.256004,287.350494 103.177887,279.674744 
z"/>
</svg>