<svg xmlns="http://www.w3.org/2000/svg" 
    xmlns:xlink="http://www.w3.org/1999/xlink" width="60" height="60" viewBox="0 0 60 60" provider_type="Nutanix">
    <defs>
        <clipPath id="a">
            <path d="M-195-112.53h2.44l3.11,4.55,3.11-4.53H-183a6.55,6.55,0,0,0-4.15,6.35,6.53,6.53,0,0,0,4.68,6.27c-2.41,0-3.92,0-3.92,0l-3.11-4.54-3.1,4.51h-2.5l4.43-6.32Z" fill="none" clip-rule="evenodd"/>
        </clipPath>
        <clipPath id="b">
            <path d="M-184.78-108.93a5.24,5.24,0,0,1,5.25-3.6c1.61,0,4.41.5,5,3.85-.41,0-1.19,0-2,0a2.92,2.92,0,0,0-2.94-2.28c-1.66,0-3.06.74-3.53,3.08a6.33,6.33,0,0,0,.47,4A6.08,6.08,0,0,1-184.78-108.93Z" fill="none" clip-rule="evenodd"/>
        </clipPath>
        <clipPath id="c">
            <path d="M-176.46-104.63h1.94a5,5,0,0,1-4.8,4.74,5.22,5.22,0,0,1-4.67-2.7,5.53,5.53,0,0,0,3.82,1.47A3.81,3.81,0,0,0-176.46-104.63Z" fill="none" clip-rule="evenodd"/>
        </clipPath>
        <clipPath id="d">
            <path d="M-146.11-108.58H-144l2.29,6.33h0l2.22-6.33h2l-3.41,8.94-.47,1.1a3.91,3.91,0,0,1-.56.93,2.41,2.41,0,0,1-.82.64,2.89,2.89,0,0,1-1.26.24,9.09,9.09,0,0,1-1.34-.1v-1.57l.46.07a2.5,2.5,0,0,0,.46,0,1.63,1.63,0,0,0,.56-.08.93.93,0,0,0,.36-.24,1.47,1.47,0,0,0,.25-.37,3.53,3.53,0,0,0,.19-.49l.22-.66Zm-5.53.16h1.34v-2.53h1.78v2.53h1.61V-107h-1.61v4.51a4.69,4.69,0,0,0,0,.51.9.9,0,0,0,.11.36.53.53,0,0,0,.26.22,1.22,1.22,0,0,0,.47.07h.38a1.79,1.79,0,0,0,.38-.06V-100l-.58.07a5,5,0,0,1-.58,0,3.79,3.79,0,0,1-1.13-.14,1.5,1.5,0,0,1-.67-.41,1.43,1.43,0,0,1-.33-.68,5.32,5.32,0,0,1-.1-.93v-5h-1.34Zm-3.16-.16h1.58v8.68h-1.58Zm0-3.16h1.58v1.58h-1.58Zm-5.53,3.39h1.67v1.64h0a1.93,1.93,0,0,1,.3-.67,3.05,3.05,0,0,1,.55-.6,2.74,2.74,0,0,1,.71-.43,2,2,0,0,1,.8-.16l.43,0,.24,0v1.8l-.38-.06-.38,0a2,2,0,0,0-.85.19,2,2,0,0,0-.7.56,2.77,2.77,0,0,0-.47.91,4.1,4.1,0,0,0-.17,1.24v4h-1.78Zm-3.95,3.72a2.32,2.32,0,0,1-1.08.35q-.64.06-1.29.18a4.07,4.07,0,0,0-.59.15,1.77,1.77,0,0,0-.51.26,1.13,1.13,0,0,0-.35.43,1.5,1.5,0,0,0-.13.65.84.84,0,0,0,.19.55,1.36,1.36,0,0,0,.45.35,2.05,2.05,0,0,0,.58.18,3.51,3.51,0,0,0,.57.05,3.09,3.09,0,0,0,.69-.09,2.29,2.29,0,0,0,.7-.29,1.87,1.87,0,0,0,.55-.53,1.35,1.35,0,0,0,.22-.79ZM-162-102a.92.92,0,0,0,.09.48.4.4,0,0,0,.36.14h.2l.27,0v1.26l-.26.07-.33.07-.34,0-.29,0a1.93,1.93,0,0,1-1-.22,1.11,1.11,0,0,1-.5-.78,3.44,3.44,0,0,1-1.41.76,5.82,5.82,0,0,1-1.61.24,4.15,4.15,0,0,1-1.13-.15,3,3,0,0,1-1-.45,2.17,2.17,0,0,1-.66-.75,2.21,2.21,0,0,1-.24-1.06,2.34,2.34,0,0,1,.29-1.24,2.12,2.12,0,0,1,.77-.75,3.62,3.62,0,0,1,1.08-.39q.6-.12,1.2-.18t1-.14a4.9,4.9,0,0,0,.83-.14,1.3,1.3,0,0,0,.57-.29.79.79,0,0,0,.21-.6.9.9,0,0,0-.18-.57,1.17,1.17,0,0,0-.44-.34,2,2,0,0,0-.58-.16,4.91,4.91,0,0,0-.61,0,2.52,2.52,0,0,0-1.33.32,1.23,1.23,0,0,0-.59,1h-1.92a2.63,2.63,0,0,1,.4-1.32,2.72,2.72,0,0,1,.9-.84,3.81,3.81,0,0,1,1.24-.45,7.77,7.77,0,0,1,1.41-.13,6.28,6.28,0,0,1,1.26.13,3.71,3.71,0,0,1,1.12.41,2.37,2.37,0,0,1,.8.74,2,2,0,0,1,.3,1.11Zm-10.92-9.79h1.58V-99.9h-1.58Z" fill="none" clip-rule="evenodd"/>
        </clipPath>
        <clipPath id="e">
            <path d="M-136.63-109.37v1.58h.2v-1.31h0l.5,1.31h.18l.5-1.31h0v1.31h.2v-1.58h-.29l-.5,1.33-.5-1.33Zm-.46.18v1.4h.13v-1.4h.33v-.18h-.79v.18Z" fill="none" clip-rule="evenodd"/>
        </clipPath>
    </defs>
    <title>Nutanix</title>
    <path d="M46.2,9.32A1,1,0,0,1,46.88,9H59a1,1,0,0,1,.59,1.76L41.8,26.32a1,1,0,0,1-1.42,0L34.31,21a1,1,0,0,1,.1-1.41Z" fill="#034ea2"/>
    <path d="M46.2,50.67a1,1,0,0,0,.69.28H59a1,1,0,0,0,.59-1.76L41.8,33.68a1,1,0,0,0-1.42,0L34.31,39a1,1,0,0,0,.1,1.41Z" fill="#034ea2"/>
    <path d="M13.8,50.7a1,1,0,0,1-.66.26H1a1,1,0,0,1-.69-1.67l21.3-18.53a1,1,0,0,0,0-1.47L.35,10.77A1,1,0,0,1,1,9H13.13a1,1,0,0,1,.66.26l22.93,20a1,1,0,0,1,0,1.48Z" fill="#b0d235"/>
</svg>